<svg width="24" height="24" viewBox="0 0 24 24" xmlns="http://www.w3.org/2000/svg" fill="currentColor" aria-hidden="true">
<path d="M16.365 1.43c0 1.14-.42 2.07-1.26 2.88-.96.93-2.07 1.47-3.3 1.38-.06-1.11.39-2.13 1.2-2.94.9-.9 2.22-1.47 3.36-1.32zM20.685 17.49c-.54 1.23-1.2 2.37-1.98 3.42-.9 1.2-1.95 1.8-3.18 1.83-1.26.03-2.07-.81-3.3-.81-1.23 0-2.1.78-3.36.84-1.32.06-2.28-.6-3.21-1.8-3-3.84-3.33-8.52-1.47-11.01 1.02-1.44 2.64-2.34 4.35-2.37 1.29-.03 2.52.87 3.3.87.78 0 2.28-1.08 3.84-.93.66.03 2.52.27 3.72 2.07-3.18 1.71-2.67 6.21.63 7.59-.18.54-.42 1.08-.84 1.8z"/>
</svg>
