<svg width="24" height="24" viewBox="0 0 24 24" fill="none" xmlns="http://www.w3.org/2000/svg">
<path d="M23.04 12.261c0-.815-.073-1.596-.209-2.348H12v4.44h6.196c-.267 1.44-1.076 2.66-2.296 3.478v2.89h3.713c2.173-2.002 3.427-4.95 3.427-8.46z" fill="#4285F4"/>
<path d="M12 24c3.24 0 5.956-1.076 7.941-2.91l-3.713-2.89c-1.03.69-2.35 1.104-4.228 1.104-3.246 0-5.996-2.19-6.978-5.143H1.2v3.147C3.173 21.318 7.273 24 12 24z" fill="#34A853"/>
<path d="M5.022 14.162A7.21 7.21 0 0 1 4.644 12c0-.75.129-1.478.356-2.162V6.69H1.2A12.003 12.003 0 0 0 0 12c0 1.93.46 3.756 1.2 5.31l3.822-3.148z" fill="#FBBC05"/>
<path d="M12 4.75c1.762 0 3.344.607 4.592 1.8l3.444-3.444C17.95 1.2 15.24 0 12 0 7.273 0 3.173 2.682 1.2 6.69l3.822 3.148C6.004 6.885 8.754 4.75 12 4.75z" fill="#EA4335"/>
</svg>
